#N canvas 1013 120 816 729 10;
#X obj 121 658 dac~;
#X obj 189 115 phasor~;
#X obj 196 79 mtof;
#X floatatom 185 43 5 0 0 0 - - -, f 5;
#X obj 66 549 +~;
#X obj 181 543 +~;
#N canvas 0 0 450 300 speedup~ 0;
#X obj 164 89 inlet~;
#X obj 173 215 outlet~;
#X obj 174 173 wrap~;
#X obj 224 91 inlet;
#X obj 172 142 *~ 2;
#X connect 0 0 4 0;
#X connect 2 0 1 0;
#X connect 3 0 4 1;
#X connect 4 0 2 0;
#X restore 142 267 pd speedup~;
#X floatatom 608 232 5 0 0 0 - - -, f 5;
#X obj 231 235 pow 2;
#N canvas 291 385 450 325 grid~ 0;
#X obj 148 21 inlet~;
#X obj 127 167 samphold~;
#N canvas 0 0 450 300 speedup~ 0;
#X obj 164 89 inlet~;
#X obj 173 215 outlet~;
#X obj 174 173 wrap~;
#X obj 224 91 inlet;
#X obj 172 142 *~ 2;
#X connect 0 0 4 0;
#X connect 2 0 1 0;
#X connect 3 0 4 1;
#X connect 4 0 2 0;
#X restore 163 70 pd speedup~;
#N canvas 0 0 450 300 speedup~ 0;
#X obj 164 89 inlet~;
#X obj 173 215 outlet~;
#X obj 174 173 wrap~;
#X obj 224 91 inlet;
#X obj 172 142 *~ 2;
#X connect 0 0 4 0;
#X connect 2 0 1 0;
#X connect 3 0 4 1;
#X connect 4 0 2 0;
#X restore 203 108 pd speedup~;
#X obj 104 111 samphold~;
#X obj 134 207 *~;
#X obj 134 232 wrap~;
#X obj 227 26 inlet;
#X obj 93 260 outlet~;
#X obj 166 263 outlet~;
#X connect 0 0 2 0;
#X connect 0 0 4 0;
#X connect 0 0 1 0;
#X connect 1 0 5 0;
#X connect 2 0 3 0;
#X connect 2 0 4 1;
#X connect 3 0 1 1;
#X connect 4 0 8 0;
#X connect 5 0 6 0;
#X connect 6 0 9 0;
#X connect 7 0 2 1;
#X connect 7 0 5 1;
#X connect 7 0 3 1;
#X restore 558 270 pd grid~;
#X obj 171 332 noise~;
#N canvas 1198 332 450 325 square~ 0;
#X obj 92 46 inlet~;
#N canvas 0 0 450 300 squarify~ 0;
#X obj 167 36 inlet~;
#X obj 205 279 outlet~;
#X obj 189 89 -~ 0.5;
#X obj 193 123 abs~;
#X obj 195 206 min~ 0.5;
#X obj 202 243 max~ -0.5;
#X obj 193 148 -~ 0.25;
#X obj 193 173 *~ 4;
#X connect 0 0 2 0;
#X connect 2 0 3 0;
#X connect 3 0 6 0;
#X connect 4 0 5 0;
#X connect 5 0 1 0;
#X connect 6 0 7 0;
#X connect 7 0 4 0;
#X restore 57 161 pd squarify~;
#N canvas 0 0 450 300 squarify~ 0;
#X obj 167 36 inlet~;
#X obj 205 279 outlet~;
#X obj 189 89 -~ 0.5;
#X obj 193 123 abs~;
#X obj 195 206 min~ 0.5;
#X obj 202 243 max~ -0.5;
#X obj 193 148 -~ 0.25;
#X obj 193 173 *~ 4;
#X connect 0 0 2 0;
#X connect 2 0 3 0;
#X connect 3 0 6 0;
#X connect 4 0 5 0;
#X connect 5 0 1 0;
#X connect 6 0 7 0;
#X connect 7 0 4 0;
#X restore 147 172 pd squarify~;
#N canvas 0 0 450 300 phaseOffset~ 0;
#X obj 143 65 inlet~;
#X obj 144 197 outlet~;
#X obj 145 120 +~ 0.25;
#X obj 151 152 wrap~;
#X connect 0 0 2 0;
#X connect 2 0 3 0;
#X connect 3 0 1 0;
#X restore 147 144 pd phaseOffset~;
#X obj 74 253 outlet~;
#X obj 163 252 outlet~;
#X connect 0 0 3 0;
#X connect 0 0 1 0;
#X connect 1 0 4 0;
#X connect 2 0 5 0;
#X connect 3 0 2 0;
#X restore 55 313 pd square~;
#N canvas 0 0 450 300 stereoScale~ 0;
#X obj 112 81 inlet~;
#X obj 112 106 *~;
#X obj 112 131 outlet~;
#X obj 174 82 inlet~;
#X obj 174 107 *~;
#X obj 174 132 outlet~;
#X obj 244 66 inlet~;
#X connect 0 0 1 0;
#X connect 1 0 2 0;
#X connect 3 0 4 0;
#X connect 4 0 5 0;
#X connect 6 0 1 1;
#X connect 6 0 4 1;
#X restore 50 382 pd stereoScale~;
#X obj 312 260 * 2;
#X obj 256 307 pow -1;
#N canvas 0 0 450 300 stereoScale~ 0;
#X obj 112 81 inlet~;
#X obj 112 106 *~;
#X obj 112 131 outlet~;
#X obj 174 82 inlet~;
#X obj 174 107 *~;
#X obj 174 132 outlet~;
#X obj 243 66 inlet~;
#X connect 0 0 1 0;
#X connect 1 0 2 0;
#X connect 3 0 4 0;
#X connect 4 0 5 0;
#X connect 6 0 1 1;
#X connect 6 0 4 1;
#X restore 158 380 pd stereoScale~;
#X obj 451 315 >~;
#N canvas 0 0 450 300 stereoScale~ 0;
#X obj 112 81 inlet~;
#X obj 112 106 *~;
#X obj 112 131 outlet~;
#X obj 174 82 inlet~;
#X obj 174 107 *~;
#X obj 174 132 outlet~;
#X obj 243 66 inlet~;
#X connect 0 0 1 0;
#X connect 1 0 2 0;
#X connect 3 0 4 0;
#X connect 4 0 5 0;
#X connect 6 0 1 1;
#X connect 6 0 4 1;
#X restore 163 429 pd stereoScale~;
#X obj 359 352 -~;
#X msg 351 322 1;
#X obj 348 289 loadbang;
#N canvas 0 0 450 300 stereoScale~ 0;
#X obj 112 81 inlet~;
#X obj 112 106 *~;
#X obj 112 131 outlet~;
#X obj 174 82 inlet~;
#X obj 174 107 *~;
#X obj 174 132 outlet~;
#X obj 243 66 inlet~;
#X connect 0 0 1 0;
#X connect 1 0 2 0;
#X connect 3 0 4 0;
#X connect 4 0 5 0;
#X connect 6 0 1 1;
#X connect 6 0 4 1;
#X restore 47 428 pd stereoScale~;
#X obj 62 474 +~;
#X obj 118 473 +~;
#N canvas 0 0 450 300 speedup~ 0;
#X obj 164 89 inlet~;
#X obj 173 215 outlet~;
#X obj 174 173 wrap~;
#X obj 224 91 inlet;
#X obj 172 142 *~ 2;
#X connect 0 0 4 0;
#X connect 2 0 1 0;
#X connect 3 0 4 1;
#X connect 4 0 2 0;
#X restore 330 161 pd speedup~;
#N canvas 0 0 450 300 speedup~ 0;
#X obj 164 89 inlet~;
#X obj 173 215 outlet~;
#X obj 174 173 wrap~;
#X obj 224 91 inlet;
#X obj 172 142 *~ 2;
#X connect 0 0 4 0;
#X connect 2 0 1 0;
#X connect 3 0 4 1;
#X connect 4 0 2 0;
#X restore 419 146 pd speedup~;
#X floatatom 372 80 5 0 0 0 - - -, f 5;
#X floatatom 473 86 5 0 0 0 - - -, f 5;
#X obj 584 92 osc~;
#X obj 586 144 *~ 2;
#X obj 618 170 snapshot~;
#X obj 647 120 metro 10;
#X obj 642 36 loadbang;
#X msg 648 78 bang;
#X obj 640 202 int;
#X obj 578 57 / 100;
#X obj 585 118 +~ 2.5;
#X msg 365 26 2;
#X msg 450 24 17;
#X msg 179 6 20;
#X obj 83 612 -~ 0.5;
#X obj 172 608 -~ 0.5;
#X connect 1 0 6 0;
#X connect 1 0 9 0;
#X connect 2 0 1 0;
#X connect 2 0 35 0;
#X connect 3 0 2 0;
#X connect 4 0 40 0;
#X connect 5 0 41 0;
#X connect 6 0 11 0;
#X connect 6 0 15 0;
#X connect 7 0 8 0;
#X connect 7 0 9 1;
#X connect 7 0 13 0;
#X connect 8 0 6 1;
#X connect 9 0 4 1;
#X connect 9 0 24 0;
#X connect 9 1 5 1;
#X connect 9 1 25 0;
#X connect 10 0 15 1;
#X connect 11 0 12 0;
#X connect 11 1 12 1;
#X connect 12 0 21 0;
#X connect 12 1 21 1;
#X connect 13 0 14 0;
#X connect 14 0 15 2;
#X connect 14 0 12 2;
#X connect 15 0 17 0;
#X connect 15 1 17 1;
#X connect 16 0 17 2;
#X connect 16 0 18 1;
#X connect 17 0 22 1;
#X connect 17 1 23 1;
#X connect 18 0 21 2;
#X connect 19 0 18 0;
#X connect 20 0 19 0;
#X connect 21 0 22 0;
#X connect 21 1 23 0;
#X connect 22 0 4 0;
#X connect 23 0 5 0;
#X connect 24 0 16 0;
#X connect 25 0 16 1;
#X connect 26 0 24 1;
#X connect 27 0 25 1;
#X connect 28 0 36 0;
#X connect 29 0 30 0;
#X connect 30 0 34 0;
#X connect 31 0 30 0;
#X connect 32 0 33 0;
#X connect 33 0 31 0;
#X connect 34 0 7 0;
#X connect 35 0 28 0;
#X connect 36 0 29 0;
#X connect 37 0 26 0;
#X connect 38 0 27 0;
#X connect 39 0 3 0;
#X connect 40 0 0 0;
#X connect 41 0 0 1;
